<svg xmlns="http://www.w3.org/2000/svg" version="1.1" xmlns:xlink="http://www.w3.org/1999/xlink" xmlns:svgjs="http://svgjs.dev/svgjs" width="1000" height="305" viewBox="0 0 1000 305"><g transform="matrix(1,0,0,1,-0.6060606060606233,-0.44979962823316555)"><svg viewBox="0 0 396 121" data-background-color="#ffffff" preserveAspectRatio="xMidYMid meet" height="305" width="1000" xmlns="http://www.w3.org/2000/svg" xmlns:xlink="http://www.w3.org/1999/xlink"><g id="tight-bounds" transform="matrix(1,0,0,1,0.2400000000000091,0.1784450984138175)"><svg viewBox="0 0 395.52 120.64310980317236" height="120.64310980317236" width="395.52"><g><svg viewBox="0 0 645.1327260691489 196.7809928923449" height="120.64310980317236" width="395.52"><g transform="matrix(1,0,0,1,249.61272606914898,27.19621537079442)"><svg viewBox="0 0 395.52 142.38856215075606" height="142.38856215075606" width="395.52"><g id="textblocktransform"><svg viewBox="0 0 395.52 142.38856215075606" height="142.38856215075606" width="395.52" id="textblock"><g><svg viewBox="0 0 395.52 104.71273133911099" height="104.71273133911099" width="395.52"><g transform="matrix(1,0,0,1,0,0)"><svg width="395.52" viewBox="2.950000047683716 -37.79999923706055 178.8300018310547 47.349998474121094" height="104.71273133911099" data-palette-color="#222222"><path d="M22.75-34.45L22.75-34.45 23.9-34.85Q24.55-34.85 24.65-34.45L24.65-34.45Q25.7-28.4 25.7-27.33 25.7-26.25 25-26.25L25-26.25Q24.55-26.25 24.13-27.33 23.7-28.4 23.13-29.3 22.55-30.2 22.3-30.45 22.05-30.7 21-31.65L21-31.65Q18.3-34.05 14.83-34.05 11.35-34.05 9.25-32.55 7.15-31.05 7.15-28.65 7.15-26.25 8.38-24.8 9.6-23.35 11.65-22.55 13.7-21.75 15.95-21.05L15.95-21.05Q22-19.15 24.9-16.1L24.9-16.1Q26.9-13.95 26.9-10.75L26.9-10.75Q26.9-5.5 23.55-2.43 20.2 0.65 15.25 0.65L15.25 0.65Q11.8 0.65 9.7 0.28 7.6-0.1 5.4-1.25L5.4-1.25Q4.75-1.65 3.85-5.15 2.95-8.65 2.95-9.53 2.95-10.4 3.63-10.4 4.3-10.4 4.45-9.9L4.45-9.9Q6.3-5.45 8.8-3.6L8.8-3.6Q11.5-1.55 15.33-1.55 19.15-1.55 21.43-3.53 23.7-5.5 23.7-8.7L23.7-8.7Q23.7-11.05 22.15-12.63 20.6-14.2 18.6-14.9L18.6-14.9Q11.15-17.4 8.5-18.95L8.5-18.95Q3.95-21.65 3.95-26.2 3.95-30.75 7.18-33.43 10.4-36.1 15.55-36.1L15.55-36.1Q17.45-36.1 20.08-35.27 22.7-34.45 22.75-34.45ZM40.15 9.5L40 9.5 37.85 9.55Q36.9 9.55 36.9 8.9L36.9 8.9Q36.9 8.75 38.02 7.35 39.15 5.95 40.3 3.9 41.45 1.85 41.45 0.28 41.45-1.3 38.6-7.5 35.75-13.7 33.65-17.65L33.65-17.65Q33.1-18.65 32.52-19.2 31.95-19.75 31.6-19.8L31.6-19.8Q30.8-19.9 30.8-20.55 30.8-21.2 31.8-21.2L31.8-21.2 37.15-21.1 40-21.2Q40.35-21.2 40.62-21.03 40.9-20.85 40.9-20.65L40.9-20.65Q40.9-19.75 39.7-19.75L39.7-19.75 38.95-19.75Q38.15-19.75 38.15-18.5L38.15-18.5Q38.15-17 40.8-11.3L40.8-11.3Q41.2-10.45 42-8.6L42-8.6Q43.5-5.2 43.8-5.2 44.1-5.2 46.12-10.95 48.15-16.7 48.15-17.8 48.15-18.9 47.67-19.35 47.2-19.8 46.6-19.8L46.6-19.8Q45.05-19.7 45.05-20.65L45.05-20.65Q45.05-21.25 46-21.25L46-21.25 49.6-21.2 52.7-21.25Q53.75-21.25 53.75-20.6L53.75-20.6Q53.75-20.1 52.87-19.88 52-19.65 51.7-19.25L51.7-19.25Q50.9-18.1 49-12.95L49-12.95 44.55-1.1Q44 0.35 43.45 1.88 42.9 3.4 42.55 4.35 42.2 5.3 41.85 6.25 41.5 7.2 41.3 7.73 41.1 8.25 40.9 8.7L40.9 8.7Q40.5 9.5 40.15 9.5L40.15 9.5ZM57.85-18.55L57.85-18.55 56.9-18.5Q56.05-18.5 56.05-19.2L56.05-19.2Q56.05-19.7 56.5-20.05L56.5-20.05Q58.4-21.3 60.3-23.8L60.3-23.8Q61.1-24.95 61.57-25.48 62.05-26 62.55-26 63.05-26 63.05-24.85L63.05-24.85Q63.05-24.85 62.85-22L62.85-22Q62.85-21.3 63.12-21.15 63.4-21 64.9-21L64.9-21 66.65-21Q68.9-21 69.4-21.25L69.4-21.25Q70.3-21.7 70.5-21.7L70.5-21.7Q71-21.7 71-21.15L71-21.15Q71-20.75 70.35-19.58 69.7-18.4 69.4-18.4L69.4-18.4Q67.15-18.4 66.25-18.5 65.35-18.6 65.05-18.63 64.75-18.65 64.52-18.68 64.3-18.7 64.2-18.7L64.2-18.7 64.1-18.75Q63.15-18.75 62.87-18.45 62.6-18.15 62.6-17.1L62.6-17.1 62.4-7.8Q62.4-4.55 63.22-3.28 64.05-2 66.7-2L66.7-2Q67.75-2 69.02-2.48 70.3-2.95 70.4-2.95L70.4-2.95Q70.9-2.95 70.9-2.3 70.9-1.65 69.17-0.58 67.45 0.5 65.45 0.5L65.45 0.5Q58.7 0.5 58.7-5.35L58.7-5.35 58.7-6.1 58.9-17.75Q58.9-18.25 58.7-18.4 58.5-18.55 57.85-18.55ZM76.34-5.9L76.34-9.6 76.54-30.85Q76.54-32 76.17-32.93 75.79-33.85 75.34-34.05 74.89-34.25 73.34-34.25L73.34-34.25Q72.79-34.25 72.79-34.6 72.79-34.95 72.87-35.1 72.94-35.25 73.19-35.38 73.44-35.5 73.79-35.6L73.79-35.6Q75.24-35.9 76.79-36.65L76.79-36.65Q79.24-37.8 79.99-37.8L79.99-37.8Q80.59-37.8 80.59-36.85L80.59-36.85Q80.59-36.65 80.49-35.7L80.49-35.7Q80.19-32.75 80.19-29.25L80.19-29.25 80.19-26.45 80.09-19.8 80.09-4.9Q80.09-3.85 80.27-3.18 80.44-2.5 81.42-1.88 82.39-1.25 84.14-1.25L84.14-1.25Q84.39-1.25 84.59-1 84.79-0.75 84.79-0.5L84.79-0.5Q84.79 0.2 83.24 0.2L83.24 0.2 78.19-0.15Q76.89-0.15 75.72 0.05 74.54 0.25 74.17 0.25 73.79 0.25 73.57 0.08 73.34-0.1 73.34-0.38 73.34-0.65 73.57-0.83 73.79-1 74.29-1.1L74.29-1.1Q75.79-1.5 76.09-2.33 76.39-3.15 76.39-4.6L76.39-4.6 76.34-5.9ZM97.24 0.3L93.69 0.2 90.14 0.3Q88.14 0.3 88.14-0.38 88.14-1.05 88.89-1.3L88.89-1.3Q88.94-1.3 89.09-1.35L89.09-1.35Q90.24-1.75 90.59-2.55 90.94-3.35 90.94-10.3L90.94-10.3 90.94-14.7Q90.94-16.15 90.59-17 90.24-17.85 89.94-18.05 89.64-18.25 88.92-18.38 88.19-18.5 87.87-18.63 87.54-18.75 87.54-19.03 87.54-19.3 87.67-19.45 87.79-19.6 88.17-19.78 88.54-19.95 88.94-20.1L88.94-20.1Q90.34-20.5 91.24-20.9 92.14-21.3 92.62-21.5 93.09-21.7 93.24-21.8L93.24-21.8Q93.59-21.95 94.09-21.95L94.09-21.95Q94.84-21.95 94.84-21L94.84-21 94.54-18.6 94.54-4.9Q94.54-3.4 95.02-2.55 95.49-1.7 96.02-1.5 96.54-1.3 97.24-1.25 97.94-1.2 98.14-1.2L98.14-1.2Q98.84-1.1 98.84-0.5L98.84-0.5Q98.84 0.35 97.99 0.35L97.99 0.35 97.24 0.3ZM92.84-26.65Q91.84-26.65 91.12-27.7 90.39-28.75 90.39-29.43 90.39-30.1 91.27-31.18 92.14-32.25 92.92-32.25 93.69-32.25 94.44-31.23 95.19-30.2 95.19-29.4 95.19-28.6 94.24-27.63 93.29-26.65 92.84-26.65L92.84-26.65ZM116.34-20.05L116.34-20.05 116.54-17.05Q116.54-16.2 116.34-15.9 116.14-15.6 115.76-15.6 115.39-15.6 114.96-16.32 114.54-17.05 114.01-17.9 113.49-18.75 112.31-19.48 111.14-20.2 109.64-20.2 108.14-20.2 107.19-19.48 106.24-18.75 106.24-17.9 106.24-17.05 106.39-16.53 106.54-16 106.91-15.6 107.29-15.2 107.56-14.93 107.84-14.65 108.49-14.35 109.14-14.05 109.46-13.93 109.79-13.8 110.54-13.5L110.54-13.5Q115.09-11.9 116.39-10.38 117.69-8.85 117.69-6 117.69-3.15 115.04-0.75L115.04-0.75Q113.24 0.8 110.09 0.8L110.09 0.8Q107.94 0.8 105.29-0.25L105.29-0.25Q104.54-0.55 104.41-0.58 104.29-0.6 104.01-0.7 103.74-0.8 103.61-0.83 103.49-0.85 103.29-0.95 103.09-1.05 103.01-1.13 102.94-1.2 102.84-1.35L102.84-1.35Q102.69-1.6 102.69-2.15L102.69-2.15 102.69-6.5Q102.69-7.05 102.91-7.43 103.14-7.8 103.54-7.8 103.94-7.8 104.11-7.58 104.29-7.35 104.44-6.65 104.59-5.95 104.74-5.65L104.74-5.65Q106.59-1.05 109.94-1.05L109.94-1.05Q111.49-1.05 112.89-1.88 114.29-2.7 114.29-4.48 114.29-6.25 113.14-7.35 111.99-8.45 110.34-9.08 108.69-9.7 107.04-10.38 105.39-11.05 104.24-12.38 103.09-13.7 103.09-15.7L103.09-15.7Q103.09-18.5 105.34-20.2 107.59-21.9 110.29-21.9 112.99-21.9 114.39-21.48 115.79-21.05 116.06-20.7 116.34-20.35 116.34-20.05ZM122.74-18.55L122.74-18.55 121.79-18.5Q120.94-18.5 120.94-19.2L120.94-19.2Q120.94-19.7 121.39-20.05L121.39-20.05Q123.29-21.3 125.19-23.8L125.19-23.8Q125.99-24.95 126.46-25.48 126.94-26 127.44-26 127.94-26 127.94-24.85L127.94-24.85Q127.94-24.85 127.74-22L127.74-22Q127.74-21.3 128.01-21.15 128.29-21 129.79-21L129.79-21 131.54-21Q133.79-21 134.29-21.25L134.29-21.25Q135.19-21.7 135.39-21.7L135.39-21.7Q135.89-21.7 135.89-21.15L135.89-21.15Q135.89-20.75 135.24-19.58 134.59-18.4 134.29-18.4L134.29-18.4Q132.04-18.4 131.14-18.5 130.24-18.6 129.94-18.63 129.64-18.65 129.41-18.68 129.19-18.7 129.09-18.7L129.09-18.7 128.99-18.75Q128.04-18.75 127.76-18.45 127.49-18.15 127.49-17.1L127.49-17.1 127.29-7.8Q127.29-4.55 128.11-3.28 128.94-2 131.59-2L131.59-2Q132.64-2 133.91-2.48 135.19-2.95 135.29-2.95L135.29-2.95Q135.79-2.95 135.79-2.3 135.79-1.65 134.06-0.58 132.34 0.5 130.34 0.5L130.34 0.5Q123.59 0.5 123.59-5.35L123.59-5.35 123.59-6.1 123.79-17.75Q123.79-18.25 123.59-18.4 123.39-18.55 122.74-18.55ZM144.98 0.75L144.98 0.75Q139.08 0.75 139.08-4.25L139.08-4.25Q139.08-7.85 142.08-9.2L142.08-9.2Q144.58-10.25 149.73-11.1L149.73-11.1Q149.88-11.15 150.13-11.18 150.38-11.2 150.66-11.25 150.93-11.3 151.08-11.35L151.08-11.35Q151.43-11.5 151.43-12.05L151.43-12.05 151.53-14.65Q151.53-17.5 149.88-18.78 148.23-20.05 146.68-20.05L146.68-20.05Q143.08-20.05 143.08-17.05L143.08-17.05 143.28-15.25Q143.28-14.25 142.38-14.25L142.38-14.25Q141.68-14.25 140.83-14.5L140.83-14.5Q139.28-15 139.28-16.2L139.28-16.2Q139.28-18.15 141.91-19.93 144.53-21.7 147.18-21.7 149.83-21.7 151.33-21.2 152.83-20.7 153.56-20.08 154.28-19.45 154.68-18.4L154.68-18.4Q155.18-17.15 155.18-14.48 155.18-11.8 155.06-9.73 154.93-7.65 154.93-5.95 154.93-4.25 155.33-3.18 155.73-2.1 156.28-1.8 156.83-1.5 157.38-1.45L157.38-1.45Q158.73-1.35 158.73-0.65L158.73-0.65Q158.73 0.4 155.58 0.4L155.58 0.4Q154.28 0.4 153.36-0.3 152.43-1 152.03-1.68 151.63-2.35 151.58-2.35 151.53-2.35 151.18-2.02 150.83-1.7 150.21-1.25 149.58-0.8 148.78-0.35L148.78-0.35Q146.93 0.75 144.98 0.75ZM151.08-10.4L151.08-10.4 150.58-10.3Q149.43-10.1 149.13-10.05 148.83-10 147.73-9.75 146.63-9.5 146.21-9.3 145.78-9.1 145.01-8.68 144.23-8.25 143.88-7.8L143.88-7.8Q142.98-6.4 142.98-4.85 142.98-3.3 143.98-2.27 144.98-1.25 146.56-1.25 148.13-1.25 149.06-1.65 149.98-2.05 150.43-2.55 150.88-3.05 151.13-3.9L151.13-3.9Q151.43-4.85 151.43-6.35L151.43-6.35 151.43-9.95Q151.43-10.4 151.08-10.4ZM168.03 0.75L168.03 0.75Q162.13 0.75 162.13-4.25L162.13-4.25Q162.13-7.85 165.13-9.2L165.13-9.2Q167.63-10.25 172.78-11.1L172.78-11.1Q172.93-11.15 173.18-11.18 173.43-11.2 173.71-11.25 173.98-11.3 174.13-11.35L174.13-11.35Q174.48-11.5 174.48-12.05L174.48-12.05 174.58-14.65Q174.58-17.5 172.93-18.78 171.28-20.05 169.73-20.05L169.73-20.05Q166.13-20.05 166.13-17.05L166.13-17.05 166.33-15.25Q166.33-14.25 165.43-14.25L165.43-14.25Q164.73-14.25 163.88-14.5L163.88-14.5Q162.33-15 162.33-16.2L162.33-16.2Q162.33-18.15 164.96-19.93 167.58-21.7 170.23-21.7 172.88-21.7 174.38-21.2 175.88-20.7 176.61-20.08 177.33-19.45 177.73-18.4L177.73-18.4Q178.23-17.15 178.23-14.48 178.23-11.8 178.11-9.73 177.98-7.65 177.98-5.95 177.98-4.25 178.38-3.18 178.78-2.1 179.33-1.8 179.88-1.5 180.43-1.45L180.43-1.45Q181.78-1.35 181.78-0.65L181.78-0.65Q181.78 0.4 178.63 0.4L178.63 0.4Q177.33 0.4 176.41-0.3 175.48-1 175.08-1.68 174.68-2.35 174.63-2.35 174.58-2.35 174.23-2.02 173.88-1.7 173.26-1.25 172.63-0.8 171.83-0.35L171.83-0.35Q169.98 0.75 168.03 0.75ZM174.13-10.4L174.13-10.4 173.63-10.3Q172.48-10.1 172.18-10.05 171.88-10 170.78-9.75 169.68-9.5 169.26-9.3 168.83-9.1 168.06-8.68 167.28-8.25 166.93-7.8L166.93-7.8Q166.03-6.4 166.03-4.85 166.03-3.3 167.03-2.27 168.03-1.25 169.61-1.25 171.18-1.25 172.11-1.65 173.03-2.05 173.48-2.55 173.93-3.05 174.18-3.9L174.18-3.9Q174.48-4.85 174.48-6.35L174.48-6.35 174.48-9.95Q174.48-10.4 174.13-10.4Z" opacity="1" transform="matrix(1,0,0,1,0,0)" fill="#222222" class="wordmark-text-0" data-fill-palette-color="primary" id="text-0"></path></svg></g></svg></g><g transform="matrix(1,0,0,1,0,129.43289410272297)"><svg viewBox="0 0 232.209792 12.955668048033102" height="12.955668048033102" width="232.209792"><g transform="matrix(1,0,0,1,0,0)"><svg width="232.209792" viewBox="1.850000023841858 -37.20000076293945 678.3211669921875 37.85000228881836" height="12.955668048033102" data-palette-color="#222222"><path d="M13.85-0.05L13.85-32.2 1.85-32.2 1.85-34.25 28.05-34.25 28.05-32.2 16.1-32.2 16.1-0.05 13.85-0.05ZM34.1-36.35L36.2-36.35 36.2-19.9Q37.85-22.65 39.97-23.95 42.1-25.25 45.25-25.25L45.25-25.25Q53.05-25.25 53.05-17.4L53.05-17.4 53.05-0.05 50.95-0.05 50.95-16.85Q50.95-20.1 49.47-21.73 48-23.35 44.95-23.35L44.95-23.35Q42.1-23.35 40.2-22.03 38.3-20.7 36.2-17.9L36.2-17.9 36.2-0.05 34.1-0.05 34.1-36.35ZM61.4-11.75Q61.4-8.05 63.22-4.73 65.05-1.4 70.55-1.4L70.55-1.4Q72.59-1.4 74.4-1.98 76.2-2.55 78.45-3.8L78.45-3.8 79.4-2.25Q77.45-0.95 75.09-0.23 72.75 0.5 70.25 0.5L70.25 0.5Q65.05 0.5 62.17-2.8 59.3-6.1 59.3-11.65L59.3-11.65Q59.3-15.6 60.65-18.7 62-21.8 64.47-23.53 66.95-25.25 70.3-25.25L70.3-25.25Q73.2-25.25 75.47-23.93 77.75-22.6 79.02-20.28 80.3-17.95 80.3-14.95L80.3-14.95Q80.3-14.05 80.09-11.75L80.09-11.75 61.4-11.75ZM61.5-13.65L78.09-13.65Q78.2-14.2 78.2-15.05L78.2-15.05Q78.2-17.45 77.12-19.38 76.05-21.3 74.25-22.38 72.45-23.45 70.3-23.45L70.3-23.45Q66.8-23.45 64.37-20.75 61.95-18.05 61.5-13.65L61.5-13.65ZM108.44 0.35Q100.24 0.35 100.24-7.5L100.24-7.5 100.24-25 102.34-25 102.39-8.05Q102.39-4.9 103.94-3.23 105.49-1.55 108.59-1.55L108.59-1.55Q111.34-1.55 113.29-2.93 115.24-4.3 117.24-7.1L117.24-7.1 117.24-25 119.34-25 119.34-7.15Q119.34-3.3 121.24-1.1L121.24-1.1 119.94 0.15Q118.69-0.8 118.04-2.38 117.39-3.95 117.39-5.35L117.39-5.35Q115.54-2.2 113.42-0.93 111.29 0.35 108.44 0.35L108.44 0.35ZM127.99-0.05L127.99-36.35 130.09-36.35 130.09-0.05 127.99-0.05ZM144.99 0.65Q141.49 0.65 139.81-1.23 138.14-3.1 138.14-7L138.14-7 138.14-31.15 140.24-31.15 140.24-24.75 148.29-24.75 148.29-22.75 140.24-22.75 140.24-7Q140.24-3.8 141.66-2.53 143.09-1.25 144.94-1.25L144.94-1.25Q146.64-1.25 148.04-2L148.04-2 149.09-0.25Q147.59 0.65 144.99 0.65L144.99 0.65ZM154.63 0L154.63-25 156.88-25 156.88 0 154.63 0ZM155.73-28.75Q154.93-28.75 154.43-29.25 153.93-29.75 153.93-30.55L153.93-30.55Q153.93-31.35 154.43-31.85 154.93-32.35 155.73-32.35L155.73-32.35Q156.53-32.35 157.06-31.85 157.58-31.35 157.58-30.55L157.58-30.55Q157.58-29.75 157.06-29.25 156.53-28.75 155.73-28.75L155.73-28.75ZM165.53-17.7Q165.53-21.5 163.63-23.75L163.63-23.75 164.88-25Q166.03-24.05 166.61-22.85 167.18-21.65 167.43-19.9L167.43-19.9Q170.08-25.25 175.58-25.25L175.58-25.25Q178.28-25.25 180.08-23.93 181.88-22.6 182.63-20L182.63-20Q183.98-22.6 186.13-23.93 188.28-25.25 190.88-25.25L190.88-25.25Q194.23-25.25 196.28-23.18 198.33-21.1 198.28-17.4L198.28-17.4 198.08-0.05 196.08-0.05 196.18-16.85Q196.18-19.95 194.83-21.65 193.48-23.35 190.63-23.35L190.63-23.35Q185.68-23.35 182.93-18L182.93-18 182.93-0.05 180.83-0.05 180.83-16.85Q180.83-19.85 179.46-21.6 178.08-23.35 175.43-23.35L175.43-23.35Q172.88-23.35 170.71-21.8 168.53-20.25 167.63-18.05L167.63-18.05 167.63-0.05 165.53-0.05 165.53-17.7ZM222.98 0.25Q221.88-0.65 221.4-1.63 220.93-2.6 220.38-4.4L220.38-4.4Q218.58 0.45 212.38 0.45L212.38 0.45Q208.38 0.45 206.18-1.55 203.98-3.55 203.98-7.15L203.98-7.15Q203.98-11 206.63-12.95 209.28-14.9 214.43-14.9L214.43-14.9 220.28-14.9 220.28-17.1Q220.28-20.45 218.93-21.98 217.58-23.5 214.48-23.5L214.48-23.5Q212.38-23.5 210.3-22.85 208.23-22.2 206.58-20.95L206.58-20.95 205.58-22.5Q209.33-25.5 214.53-25.5L214.53-25.5Q218.53-25.5 220.45-23.58 222.38-21.65 222.38-17.65L222.38-17.65 222.38-7.05Q222.38-3.15 224.23-1L224.23-1 222.98 0.25ZM212.43-1.45Q215.98-1.45 218.13-3.48 220.28-5.5 220.28-8.75L220.28-8.75 220.28-13 214.68-13Q210.13-13 208.1-11.6 206.08-10.2 206.08-7.2L206.08-7.2Q206.08-4.4 207.78-2.93 209.48-1.45 212.43-1.45L212.43-1.45ZM237.23 0.65Q233.73 0.65 232.05-1.23 230.38-3.1 230.38-7L230.38-7 230.38-31.15 232.48-31.15 232.48-24.75 240.53-24.75 240.53-22.75 232.48-22.75 232.48-7Q232.48-3.8 233.9-2.53 235.33-1.25 237.18-1.25L237.18-1.25Q238.88-1.25 240.28-2L240.28-2 241.33-0.25Q239.83 0.65 237.23 0.65L237.23 0.65ZM246.22-11.75Q246.22-8.05 248.05-4.73 249.87-1.4 255.37-1.4L255.37-1.4Q257.42-1.4 259.22-1.98 261.02-2.55 263.27-3.8L263.27-3.8 264.22-2.25Q262.27-0.95 259.92-0.23 257.57 0.5 255.07 0.5L255.07 0.5Q249.87 0.5 247-2.8 244.12-6.1 244.12-11.65L244.12-11.65Q244.12-15.6 245.47-18.7 246.82-21.8 249.3-23.53 251.77-25.25 255.12-25.25L255.12-25.25Q258.02-25.25 260.3-23.93 262.57-22.6 263.85-20.28 265.12-17.95 265.12-14.95L265.12-14.95Q265.12-14.05 264.92-11.75L264.92-11.75 246.22-11.75ZM246.32-13.65L262.92-13.65Q263.02-14.2 263.02-15.05L263.02-15.05Q263.02-17.45 261.95-19.38 260.87-21.3 259.07-22.38 257.27-23.45 255.12-23.45L255.12-23.45Q251.62-23.45 249.2-20.75 246.77-18.05 246.32-13.65L246.32-13.65ZM296.77-36.65Q297.87-36.2 298.67-35.4L298.67-35.4 297.02-34Q296.47-34.6 295.54-34.95 294.62-35.3 293.57-35.3L293.57-35.3Q290.22-35.3 289.12-32.58 288.02-29.85 288.02-25.45L288.02-25.45 288.02-25 295.57-25 295.57-23.1 288.02-23.1 288.02-0.05 285.92-0.05 285.92-23.1 283.32-23.1 283.32-25 285.92-25 285.92-25.3Q285.92-30.85 287.52-34.02 289.12-37.2 293.52-37.2L293.52-37.2Q295.42-37.2 296.77-36.65L296.77-36.65ZM318.27 0.25Q317.17-0.65 316.69-1.63 316.22-2.6 315.67-4.4L315.67-4.4Q313.87 0.45 307.67 0.45L307.67 0.45Q303.67 0.45 301.47-1.55 299.27-3.55 299.27-7.15L299.27-7.15Q299.27-11 301.92-12.95 304.57-14.9 309.72-14.9L309.72-14.9 315.57-14.9 315.57-17.1Q315.57-20.45 314.22-21.98 312.87-23.5 309.77-23.5L309.77-23.5Q307.67-23.5 305.59-22.85 303.52-22.2 301.87-20.95L301.87-20.95 300.87-22.5Q304.62-25.5 309.82-25.5L309.82-25.5Q313.82-25.5 315.74-23.58 317.67-21.65 317.67-17.65L317.67-17.65 317.67-7.05Q317.67-3.15 319.52-1L319.52-1 318.27 0.25ZM307.72-1.45Q311.27-1.45 313.42-3.48 315.57-5.5 315.57-8.75L315.57-8.75 315.57-13 309.97-13Q305.42-13 303.39-11.6 301.37-10.2 301.37-7.2L301.37-7.2Q301.37-4.4 303.07-2.93 304.77-1.45 307.72-1.45L307.72-1.45ZM332.51 0.55Q329.96 0.55 327.76-0.35 325.56-1.25 323.51-3.15L323.51-3.15 324.71-4.6Q328.36-1.35 332.56-1.35L332.56-1.35Q335.41-1.35 337.26-2.8 339.11-4.25 339.11-6.7L339.11-6.7Q339.11-8.25 338.31-9.25 337.51-10.25 336.14-10.95 334.76-11.65 331.96-12.8L331.96-12.8Q329.36-13.85 327.96-14.6 326.56-15.35 325.69-16.53 324.81-17.7 324.81-19.45L324.81-19.45Q324.81-22.25 326.89-23.95 328.96-25.65 332.41-25.65L332.41-25.65Q335.61-25.65 338.36-23.9L338.36-23.9 337.36-22.3Q334.91-23.75 332.46-23.75L332.46-23.75Q330.01-23.75 328.49-22.55 326.96-21.35 326.96-19.45L326.96-19.45Q326.96-18.4 327.54-17.68 328.11-16.95 329.46-16.23 330.81-15.5 333.71-14.25L333.71-14.25Q336.71-12.95 338.16-12.1 339.61-11.25 340.44-10.05 341.26-8.85 341.26-6.95L341.26-6.95Q341.26-3.5 338.86-1.48 336.46 0.55 332.51 0.55L332.51 0.55ZM347.11-36.35L349.21-36.35 349.21-19.9Q350.86-22.65 352.99-23.95 355.11-25.25 358.26-25.25L358.26-25.25Q366.06-25.25 366.06-17.4L366.06-17.4 366.06-0.05 363.96-0.05 363.96-16.85Q363.96-20.1 362.49-21.73 361.01-23.35 357.96-23.35L357.96-23.35Q355.11-23.35 353.21-22.03 351.31-20.7 349.21-17.9L349.21-17.9 349.21-0.05 347.11-0.05 347.11-36.35ZM374.06 0L374.06-25 376.31-25 376.31 0 374.06 0ZM375.16-28.75Q374.36-28.75 373.86-29.25 373.36-29.75 373.36-30.55L373.36-30.55Q373.36-31.35 373.86-31.85 374.36-32.35 375.16-32.35L375.16-32.35Q375.96-32.35 376.48-31.85 377.01-31.35 377.01-30.55L377.01-30.55Q377.01-29.75 376.48-29.25 375.96-28.75 375.16-28.75L375.16-28.75ZM394.86 0.45Q391.31 0.45 388.58-1.15 385.86-2.75 384.33-5.65 382.81-8.55 382.81-12.3L382.81-12.3Q382.81-16.1 384.33-19.03 385.86-21.95 388.61-23.6 391.36-25.25 394.91-25.25L394.91-25.25Q398.46-25.25 401.21-23.63 403.96-22 405.48-19.07 407.01-16.15 407.01-12.35L407.01-12.35Q407.01-8.6 405.48-5.68 403.96-2.75 401.21-1.15 398.46 0.45 394.86 0.45L394.86 0.45ZM394.91-1.45Q397.86-1.45 400.13-2.85 402.41-4.25 403.66-6.78 404.91-9.3 404.91-12.55L404.91-12.55Q404.91-15.75 403.66-18.2 402.41-20.65 400.13-22 397.86-23.35 394.91-23.35L394.91-23.35Q391.96-23.35 389.68-21.98 387.41-20.6 386.16-18.1 384.91-15.6 384.91-12.35L384.91-12.35Q384.91-9.15 386.16-6.68 387.41-4.2 389.68-2.83 391.96-1.45 394.91-1.45L394.91-1.45ZM413.25-17.7Q413.25-21.5 411.35-23.75L411.35-23.75 412.6-25Q414.9-23.25 415.15-19.75L415.15-19.75Q416.9-22.6 419.03-23.93 421.15-25.25 424.3-25.25L424.3-25.25Q428.15-25.25 430.2-23.28 432.25-21.3 432.2-17.4L432.2-17.4 432.05-0.05 430.05-0.05 430.1-16.85Q430.1-23.35 424.05-23.35L424.05-23.35Q421.3-23.35 419.33-22.03 417.35-20.7 415.35-17.9L415.35-17.9 415.35-0.05 413.25-0.05 413.25-17.7ZM462.3 0.45Q459 0.45 456.62-1.25 454.25-2.95 453.02-5.85 451.8-8.75 451.8-12.25L451.8-12.25Q451.8-16.05 453.2-19 454.6-21.95 457.32-23.6 460.05-25.25 463.85-25.25L463.85-25.25Q465.05-25.25 467-25.1 468.95-24.95 470.35-24.75L470.35-24.75 470.35-36.4 472.45-36.4 472.45-7.05Q472.45-3.25 474.3-1L474.3-1 473.05 0.25Q471.1-1.3 470.5-4.7L470.5-4.7Q469.45-2.05 467.25-0.8 465.05 0.45 462.3 0.45L462.3 0.45ZM462.45-1.5Q464.85-1.5 466.75-2.7 468.65-3.9 469.6-5.85L469.6-5.85Q470.35-7.3 470.35-9.3L470.35-9.3 470.35-22.75Q467.35-23.1 466.05-23.2 464.75-23.3 463.4-23.3L463.4-23.3Q460.55-23.3 458.4-21.85 456.25-20.4 455.12-17.93 454-15.45 454-12.4L454-12.4Q454-9.45 454.97-6.98 455.95-4.5 457.87-3 459.8-1.5 462.45-1.5L462.45-1.5ZM481-11.75Q481-8.05 482.82-4.73 484.65-1.4 490.15-1.4L490.15-1.4Q492.2-1.4 494-1.98 495.8-2.55 498.05-3.8L498.05-3.8 499-2.25Q497.05-0.95 494.7-0.23 492.35 0.5 489.85 0.5L489.85 0.5Q484.65 0.5 481.77-2.8 478.9-6.1 478.9-11.65L478.9-11.65Q478.9-15.6 480.25-18.7 481.6-21.8 484.07-23.53 486.55-25.25 489.9-25.25L489.9-25.25Q492.8-25.25 495.07-23.93 497.35-22.6 498.62-20.28 499.9-17.95 499.9-14.95L499.9-14.95Q499.9-14.05 499.7-11.75L499.7-11.75 481-11.75ZM481.1-13.65L497.7-13.65Q497.8-14.2 497.8-15.05L497.8-15.05Q497.8-17.45 496.72-19.38 495.65-21.3 493.85-22.38 492.05-23.45 489.9-23.45L489.9-23.45Q486.4-23.45 483.97-20.75 481.55-18.05 481.1-13.65L481.1-13.65ZM512.84 0.55Q510.29 0.55 508.09-0.35 505.89-1.25 503.84-3.15L503.84-3.15 505.04-4.6Q508.69-1.35 512.89-1.35L512.89-1.35Q515.74-1.35 517.59-2.8 519.44-4.25 519.44-6.7L519.44-6.7Q519.44-8.25 518.64-9.25 517.84-10.25 516.47-10.95 515.09-11.65 512.29-12.8L512.29-12.8Q509.69-13.85 508.29-14.6 506.89-15.35 506.02-16.53 505.14-17.7 505.14-19.45L505.14-19.45Q505.14-22.25 507.22-23.95 509.29-25.65 512.74-25.65L512.74-25.65Q515.94-25.65 518.69-23.9L518.69-23.9 517.69-22.3Q515.24-23.75 512.79-23.75L512.79-23.75Q510.34-23.75 508.82-22.55 507.29-21.35 507.29-19.45L507.29-19.45Q507.29-18.4 507.87-17.68 508.44-16.95 509.79-16.23 511.14-15.5 514.04-14.25L514.04-14.25Q517.04-12.95 518.49-12.1 519.94-11.25 520.77-10.05 521.59-8.85 521.59-6.95L521.59-6.95Q521.59-3.5 519.19-1.48 516.79 0.55 512.84 0.55L512.84 0.55ZM533.94 0.65Q530.44 0.65 528.76-1.23 527.09-3.1 527.09-7L527.09-7 527.09-31.15 529.19-31.15 529.19-24.75 537.24-24.75 537.24-22.75 529.19-22.75 529.19-7Q529.19-3.8 530.62-2.53 532.04-1.25 533.89-1.25L533.89-1.25Q535.59-1.25 536.99-2L536.99-2 538.04-0.25Q536.54 0.65 533.94 0.65L533.94 0.65ZM543.59 0L543.59-25 545.84-25 545.84 0 543.59 0ZM544.69-28.75Q543.89-28.75 543.39-29.25 542.89-29.75 542.89-30.55L542.89-30.55Q542.89-31.35 543.39-31.85 543.89-32.35 544.69-32.35L544.69-32.35Q545.49-32.35 546.01-31.85 546.54-31.35 546.54-30.55L546.54-30.55Q546.54-29.75 546.01-29.25 545.49-28.75 544.69-28.75L544.69-28.75ZM554.48-17.7Q554.48-21.5 552.58-23.75L552.58-23.75 553.83-25Q556.13-23.25 556.38-19.75L556.38-19.75Q558.13-22.6 560.26-23.93 562.38-25.25 565.53-25.25L565.53-25.25Q569.38-25.25 571.43-23.28 573.48-21.3 573.43-17.4L573.43-17.4 573.28-0.05 571.28-0.05 571.33-16.85Q571.33-23.35 565.28-23.35L565.28-23.35Q562.53-23.35 560.56-22.03 558.58-20.7 556.58-17.9L556.58-17.9 556.58-0.05 554.48-0.05 554.48-17.7ZM598.13 0.25Q597.03-0.65 596.56-1.63 596.08-2.6 595.53-4.4L595.53-4.4Q593.73 0.45 587.53 0.45L587.53 0.45Q583.53 0.45 581.33-1.55 579.13-3.55 579.13-7.15L579.13-7.15Q579.13-11 581.78-12.95 584.43-14.9 589.58-14.9L589.58-14.9 595.43-14.9 595.43-17.1Q595.43-20.45 594.08-21.98 592.73-23.5 589.63-23.5L589.63-23.5Q587.53-23.5 585.46-22.85 583.38-22.2 581.73-20.95L581.73-20.95 580.73-22.5Q584.48-25.5 589.68-25.5L589.68-25.5Q593.68-25.5 595.61-23.58 597.53-21.65 597.53-17.65L597.53-17.65 597.53-7.05Q597.53-3.15 599.38-1L599.38-1 598.13 0.25ZM587.58-1.45Q591.13-1.45 593.28-3.48 595.43-5.5 595.43-8.75L595.43-8.75 595.43-13 589.83-13Q585.28-13 583.26-11.6 581.23-10.2 581.23-7.2L581.23-7.2Q581.23-4.4 582.93-2.93 584.63-1.45 587.58-1.45L587.58-1.45ZM612.38 0.65Q608.88 0.65 607.2-1.23 605.53-3.1 605.53-7L605.53-7 605.53-31.15 607.63-31.15 607.63-24.75 615.68-24.75 615.68-22.75 607.63-22.75 607.63-7Q607.63-3.8 609.05-2.53 610.48-1.25 612.33-1.25L612.33-1.25Q614.03-1.25 615.43-2L615.43-2 616.48-0.25Q614.98 0.65 612.38 0.65L612.38 0.65ZM622.03 0L622.03-25 624.28-25 624.28 0 622.03 0ZM623.13-28.75Q622.33-28.75 621.83-29.25 621.33-29.75 621.33-30.55L621.33-30.55Q621.33-31.35 621.83-31.85 622.33-32.35 623.13-32.35L623.13-32.35Q623.93-32.35 624.45-31.85 624.98-31.35 624.98-30.55L624.98-30.55Q624.98-29.75 624.45-29.25 623.93-28.75 623.13-28.75L623.13-28.75ZM642.82 0.45Q639.27 0.45 636.55-1.15 633.82-2.75 632.3-5.65 630.77-8.55 630.77-12.3L630.77-12.3Q630.77-16.1 632.3-19.03 633.82-21.95 636.57-23.6 639.32-25.25 642.87-25.25L642.87-25.25Q646.42-25.25 649.17-23.63 651.92-22 653.45-19.07 654.97-16.15 654.97-12.35L654.97-12.35Q654.97-8.6 653.45-5.68 651.92-2.75 649.17-1.15 646.42 0.45 642.82 0.45L642.82 0.45ZM642.87-1.45Q645.82-1.45 648.1-2.85 650.37-4.25 651.62-6.78 652.87-9.3 652.87-12.55L652.87-12.55Q652.87-15.75 651.62-18.2 650.37-20.65 648.1-22 645.82-23.35 642.87-23.35L642.87-23.35Q639.92-23.35 637.65-21.98 635.37-20.6 634.12-18.1 632.87-15.6 632.87-12.35L632.87-12.35Q632.87-9.15 634.12-6.68 635.37-4.2 637.65-2.83 639.92-1.45 642.87-1.45L642.87-1.45ZM661.22-17.7Q661.22-21.5 659.32-23.75L659.32-23.75 660.57-25Q662.87-23.25 663.12-19.75L663.12-19.75Q664.87-22.6 667-23.93 669.12-25.25 672.27-25.25L672.27-25.25Q676.12-25.25 678.17-23.28 680.22-21.3 680.17-17.4L680.17-17.4 680.02-0.05 678.02-0.05 678.07-16.85Q678.07-23.35 672.02-23.35L672.02-23.35Q669.27-23.35 667.3-22.03 665.32-20.7 663.32-17.9L663.32-17.9 663.32-0.05 661.22-0.05 661.22-17.7Z" opacity="1" transform="matrix(1,0,0,1,0,0)" fill="#222222" class="slogan-text-1" data-fill-palette-color="secondary" id="text-1"></path></svg></g></svg></g></svg></g></svg></g><g><svg viewBox="0 0 224.892563305537 196.7809928923449" height="196.7809928923449" width="224.892563305537"><g><svg xmlns="http://www.w3.org/2000/svg" xmlns:xlink="http://www.w3.org/1999/xlink" version="1.1" x="0" y="0" viewBox="0 0 100 87.5" style="enable-background:new 0 0 100 87.5;" xml:space="preserve" width="224.892563305537" height="196.7809928923449" class="icon-icon-0" data-fill-palette-color="accent" id="icon-0"><path d="M12.5 6.25c0 3.455-2.795 6.25-6.25 6.25C2.795 12.5 0 9.705 0 6.25 0 2.795 2.795 0 6.25 0 9.705 0 12.5 2.795 12.5 6.25z" fill="#f500a2" data-fill-palette-color="accent"></path><path d="M37.5 81.25c0 3.455-2.795 6.25-6.25 6.25S25 84.705 25 81.25 27.795 75 31.25 75 37.5 77.795 37.5 81.25z" fill="#f500a2" data-fill-palette-color="accent"></path><path d="M37.5 31.25c0 3.455-2.795 6.25-6.25 6.25S25 34.705 25 31.25 27.795 25 31.25 25 37.5 27.795 37.5 31.25z" fill="#f500a2" data-fill-palette-color="accent"></path><path d="M62.5 56.25c0 3.455-2.795 6.25-6.25 6.25S50 59.705 50 56.25 52.795 50 56.25 50 62.5 52.795 62.5 56.25z" fill="#f500a2" data-fill-palette-color="accent"></path><rect x="25" width="75" height="12.5" fill="#f500a2" data-fill-palette-color="accent"></rect><rect x="50" y="25" width="50" height="12.5" fill="#f500a2" data-fill-palette-color="accent"></rect><rect x="50" y="75" width="50" height="12.5" fill="#f500a2" data-fill-palette-color="accent"></rect><rect x="75" y="50" width="25" height="12.5" fill="#f500a2" data-fill-palette-color="accent"></rect></svg></g></svg></g></svg></g><defs></defs></svg><rect width="395.52" height="120.64310980317236" fill="none" stroke="none" visibility="hidden"></rect></g></svg></g></svg>